<svg viewBox="0 0 3014 2512" xmlns="http://www.w3.org/2000/svg"><path d="M17 1374q-20-204 48-395.5T278 643q130-130 299-198t340-68q171 0 340.5 68T1557 643q130 130 198 299t68 340q0 171-68 340.5T1557 1922q-127 127-293.5 195.5T917 2186q-26 0-78-4l-47-4q-80 22-159 22-65 0-148-19-93 31-194 8t-174-96q-70-70-94.5-165.5T25 1742q-48-166-4-336l-4-32zm156 165q104-71 232.5-59T626 1584q89 89 103.5 213.5T680 2026q165-17 279-134 136-134 136-326t-136-326q-136-136-326-136-191 0-327 136-124 122-133 299zm35-441q180-165 425-165 123 0 239.5 47t207.5 138q118 118 162.5 275.5t7 316.5q-37.5 159-148.5 282 192-49 334-191 103-103 159-238t56-281q0-146-55.5-280.5T1435 763q-104-104-237-159t-281-55q-146 0-280.5 55.5T399 763q-141 141-191 335z"/></svg>